<svg width="40" height="40" viewBox="0 0 40 40" fill="none" xmlns="http://www.w3.org/2000/svg">
<rect width="40" height="40" rx="8" fill="#F8AFA6"/>
<path d="M28.9221 10.5398C29.4859 9.2988 29.6206 5.91968 27.7591 6.55083C25.8124 7.21034 24.6282 8.65702 24.4899 9.64629C24.3551 10.6356 25.777 11.2206 26.8514 11.3731C27.9257 11.5256 28.7058 11.0114 28.9221 10.5398Z" fill="white"/>
<path d="M18.6781 15.9082C18.1852 14.3587 21.9367 11.2845 23.0997 10.0434C23.5429 9.57186 23.7379 8.32729 23.0252 7.15719C22.3125 5.99063 21.0325 4.52267 19.9475 5.15028C18.866 5.77788 14.4374 13.0077 16.8804 16.706C17.5009 17.642 18.3944 18.5001 20.1567 18.1207C23.1564 17.4754 26.4115 13.763 26.5249 12.8694C26.6419 11.9759 25.3087 11.5327 24.3336 11.3838C23.3585 11.2348 22.5856 11.7135 22.3976 12.139C21.8977 13.2559 20.8659 16.4188 19.7312 16.7095C19.1426 16.8301 18.7774 16.2237 18.6781 15.9117V15.9082Z" fill="white"/>
<path d="M29.4892 28.8929C30.7303 29.4567 34.1094 29.5914 33.4783 27.7299C32.8187 25.7833 31.3721 24.599 30.3828 24.4607C29.3935 24.326 28.8085 25.7478 28.656 26.8222C28.5035 27.8965 29.0177 28.6766 29.4892 28.8929Z" fill="white"/>
<path d="M24.1207 18.6492C25.6702 18.1563 28.7444 21.9077 29.9854 23.0708C30.457 23.514 31.7016 23.709 32.8717 22.9963C34.0382 22.2836 35.5062 21.0036 34.8786 19.9186C34.251 18.8336 27.0211 14.4084 23.3229 16.8515C22.3868 17.472 21.5287 18.3655 21.9081 20.1278C22.5534 23.1275 26.2659 26.3825 27.1594 26.496C28.053 26.613 28.4962 25.2798 28.6451 24.3047C28.794 23.3296 28.3153 22.5566 27.8898 22.3687C26.7729 21.8687 23.6101 20.8369 23.3193 19.7023C23.1988 19.1137 23.8051 18.7485 24.1171 18.6492H24.1207Z" fill="white"/>
<path d="M11.1363 29.4637C10.5725 30.7048 10.4378 34.0839 12.2993 33.4527C14.246 32.7932 15.4303 31.3465 15.5686 30.3573C15.7033 29.368 14.2814 28.7829 13.2071 28.6305C12.1327 28.478 11.3526 28.9921 11.1363 29.4637Z" fill="white"/>
<path d="M21.3802 24.0919C21.873 25.6414 18.1216 28.7156 16.9586 29.9566C16.5153 30.4282 16.3203 31.6727 17.033 32.8428C17.7457 34.0094 19.0257 35.4773 20.1108 34.8497C21.1958 34.2221 25.6209 26.9923 23.1779 23.2941C22.5574 22.358 21.6638 21.4999 19.9016 21.8793C16.9018 22.5246 13.6468 26.2371 13.5333 27.1306C13.4163 28.0241 14.7495 28.4673 15.7246 28.6163C16.6997 28.7652 17.4727 28.2865 17.6606 27.861C18.1606 26.7441 19.1924 23.5813 20.3271 23.2905C20.9157 23.17 21.2809 23.7763 21.3802 24.0883V24.0919Z" fill="white"/>
<path d="M10.569 11.1108C9.32799 10.547 5.94885 10.4123 6.58 12.2738C7.23952 14.2205 8.6862 15.4047 9.67548 15.543C10.6648 15.6778 11.2498 14.2559 11.4023 13.1815C11.5547 12.1072 11.0406 11.3271 10.569 11.1108Z" fill="white"/>
<path d="M15.9372 21.351C14.3877 21.8439 11.3135 18.0925 10.0725 16.9295C9.60092 16.4862 8.35635 16.2912 7.18624 17.0039C6.01968 17.7166 4.55173 18.9966 5.17933 20.0817C5.80693 21.1667 13.0368 25.5918 16.735 23.1487C17.6711 22.5282 18.5292 21.6347 18.1498 19.8725C17.5045 16.8727 13.792 13.6177 12.8985 13.5042C12.005 13.3908 11.5617 14.7204 11.4128 15.6955C11.2639 16.6706 11.7426 17.4436 12.1681 17.6315C13.285 18.1315 16.4478 19.1633 16.7386 20.2979C16.8591 20.8865 16.2528 21.2518 15.9408 21.351H15.9372Z" fill="white"/>
</svg>
