<svg width="117" height="37" viewBox="0 0 117 37" fill="none" xmlns="http://www.w3.org/2000/svg">
<path d="M116.287 18.9504C116.225 18.715 116.1 18.5015 115.927 18.3334L105.677 8.31808L98.6665 1.16274C98.4811 0.973045 98.2444 0.84365 97.9865 0.791023C97.7285 0.738397 97.461 0.764902 97.218 0.867167C96.9749 0.969433 96.7672 1.14286 96.6213 1.36539C96.4754 1.58792 96.3978 1.84953 96.3984 2.11697V7.25928C96.3984 7.43643 96.4328 7.61186 96.4994 7.77553C96.5661 7.9392 96.6639 8.08789 96.7871 8.21315C96.9103 8.33842 97.0566 8.43778 97.2176 8.50557C97.3786 8.57336 97.5511 8.60826 97.7254 8.60826H104.347C104.699 8.60826 105.037 8.75031 105.286 9.00322C105.536 9.25612 105.676 9.59924 105.677 9.95725V17.2407C105.677 17.5991 105.536 17.9429 105.287 18.1964C105.038 18.4499 104.7 18.5923 104.347 18.5923H97.7254C97.3734 18.5923 97.0359 18.7344 96.7871 18.9874C96.5382 19.2404 96.3984 19.5835 96.3984 19.9412V27.5436C96.3984 27.9014 96.5382 28.2445 96.7871 28.4975C97.0359 28.7505 97.3734 28.8926 97.7254 28.8926H109.884C109.925 28.8952 109.966 28.8952 110.007 28.8926C110.807 28.8089 118.601 27.8155 116.287 18.9504Z" fill="#05C6C5"/>
<path d="M76.5059 19.0278C76.5669 19.257 76.6917 19.4647 76.866 19.6276L87.1181 29.3673L94.1295 36.3213C94.315 36.5058 94.5518 36.6316 94.8097 36.6827C95.0677 36.7339 95.3353 36.7081 95.5784 36.6087C95.8215 36.5093 96.0292 36.3407 96.1752 36.1243C96.3211 35.908 96.3987 35.6536 96.3981 35.3936V30.3942C96.3981 30.2219 96.3637 30.0514 96.2971 29.8923C96.2304 29.7331 96.1326 29.5886 96.0094 29.4668C95.8861 29.345 95.7398 29.2484 95.5788 29.1825C95.4178 29.1166 95.2452 29.0826 95.0709 29.0826H88.4479C88.0957 29.0827 87.7578 28.9445 87.5085 28.6987C87.2592 28.4528 87.1188 28.1192 87.1181 27.7711V20.69C87.1188 20.342 87.2592 20.0084 87.5085 19.7625C87.7578 19.5166 88.0957 19.3785 88.4479 19.3785H95.0709C95.4231 19.3778 95.7607 19.2391 96.0095 18.9928C96.2583 18.7464 96.3981 18.4125 96.3981 18.0645V10.6733C96.3981 10.3254 96.2582 9.99183 96.0094 9.74587C95.7605 9.49992 95.4229 9.36177 95.0709 9.36177H82.9103C82.8691 9.35923 82.8279 9.35923 82.7868 9.36177C81.992 9.4431 74.2039 10.4089 76.5059 19.0278Z" fill="#05C6C5"/>
<path d="M31.6077 11.1719C31.6077 11.0508 31.5837 10.9308 31.537 10.8189C31.4903 10.707 31.4219 10.6053 31.3357 10.5197C31.2494 10.434 31.147 10.3661 31.0343 10.3197C30.9216 10.2734 30.8009 10.2495 30.6789 10.2495H28.5079L25.0153 10.2627C24.7699 10.2632 24.5347 10.3604 24.3614 10.533C24.1881 10.7055 24.0908 10.9392 24.0908 11.1829V13.5316C24.0908 13.7754 24.1881 14.0094 24.3613 14.1822C24.5345 14.3551 24.7697 14.4528 25.0153 14.4539H30.6767C30.923 14.4539 31.1593 14.3568 31.3335 14.1838C31.5077 14.0108 31.6055 13.7762 31.6055 13.5316L31.6077 11.1719Z" fill="#121212"/>
<path d="M58.5687 8.97892C58.5687 6.61708 58.5532 6.60831 56.1947 6.62146C53.8008 6.62146 54.0104 6.38702 54.0766 8.68971C54.1031 9.61867 53.728 9.78519 52.9293 9.76547L51.8703 9.75452H44.6711C44.3727 9.75452 44.0865 9.87224 43.8755 10.0818C43.6644 10.2913 43.5459 10.5756 43.5459 10.8719V12.7254C43.5459 13.021 43.6638 13.3046 43.8739 13.514C44.084 13.7234 44.369 13.8417 44.6667 13.8428L55.5968 13.8801H57.3618C58.2444 13.8801 58.5665 13.4002 58.5577 12.5655C58.54 11.378 58.5731 10.1861 58.5687 8.97892Z" fill="#121212"/>
<path d="M63.6415 21.222C63.6415 21.222 57.0534 21.3775 52.2591 21.3775C51.509 21.3291 50.7648 21.2147 50.0351 21.0357H50.0064C49.3582 20.7667 48.8055 20.3117 48.4191 19.729C48.0328 19.1463 47.8303 18.4623 47.8376 17.7646V15.8826C47.8376 15.717 47.7714 15.5582 47.6535 15.4411C47.5355 15.324 47.3756 15.2582 47.2088 15.2582H44.2126C44.0371 15.2582 43.8688 15.3274 43.7446 15.4507C43.6205 15.574 43.5508 15.7412 43.5508 15.9155V17.7778C43.558 18.3424 43.4268 18.9003 43.1685 19.4034C42.9102 19.9065 42.5326 20.3396 42.0681 20.6655C41.4755 21.0666 40.7814 21.2943 40.0648 21.3227C39.2032 21.3484 38.3619 21.06 37.6996 20.5121C37.3614 20.2296 37.0905 19.8762 36.9062 19.4773C36.7219 19.0783 36.629 18.6439 36.634 18.205V15.9922C36.634 15.8417 36.5738 15.6973 36.4666 15.5909C36.3594 15.4845 36.2141 15.4247 36.0625 15.4247H32.7729C32.6214 15.4247 32.476 15.4845 32.3688 15.5909C32.2617 15.6973 32.2015 15.8417 32.2015 15.9922V18.4482C31.8639 20.2842 30.5423 21.3118 28.4507 21.3162C26.7651 21.3162 25.0751 21.2526 23.3939 21.3425C22.3326 21.3994 22.0502 21.0116 22.1274 20.0279C22.3106 17.6792 21.8958 15.4795 20.4904 13.5668C20.3028 13.3118 20.0867 13.0788 19.8461 12.8723C18.9128 12.0616 17.92 11.3561 16.6756 11.0384C14.6194 10.5148 12.8962 10.5433 11.2525 12.3727C10.1163 13.6391 9.21388 14.4541 8.16367 15.4685C7.81172 15.8079 7.60945 16.2719 7.60108 16.759C7.56578 19.2545 7.68049 21.75 7.59004 24.2433C7.55694 25.1898 7.90555 25.3563 8.7285 25.3387C11.3275 25.2971 13.9288 25.3234 16.5278 25.3234C17.7987 25.3234 18.2355 25.5754 18.0722 26.443C18.0722 26.443 18.0722 26.4583 18.0722 26.4846C18.012 26.7417 17.9316 26.9937 17.8318 27.2383C17.7457 27.4859 17.6288 27.7992 17.4787 28.1782L16.6249 29.4928C16.6249 29.4928 19.7005 31.2061 19.7137 31.1973C21.3332 30.0778 21.9598 26.8264 22.0039 26.3992C22.0921 25.5885 22.4738 25.2489 23.3939 25.3037C24.967 25.3848 26.5467 25.3387 28.1242 25.3256C29.9974 25.3125 31.8882 25.0342 33.2495 23.7306C34.2423 22.7819 34.7299 23.1259 35.5374 23.8007C36.8612 24.8962 38.5292 25.5535 40.1707 25.4593C42.0441 25.3714 43.823 24.6162 45.1812 23.3318C45.4989 23.0251 45.7262 22.8257 46.163 23.242C47.82 24.8151 49.8586 25.3344 52.1024 25.3278C56.4886 25.3168 59.2266 25.2599 62.5582 25.227C62.6998 25.2253 62.8404 25.2515 62.9717 25.3041C63.1031 25.3567 63.2226 25.4347 63.3234 25.5336C63.4241 25.6324 63.5042 25.7501 63.5588 25.8799C63.6134 26.0097 63.6415 26.149 63.6415 26.2896V27.2208C63.6415 27.4445 63.731 27.659 63.8903 27.8172C64.0496 27.9754 64.2656 28.0643 64.4909 28.0643H67.0392C67.1509 28.0646 67.2616 28.043 67.3649 28.0007C67.4682 27.9585 67.5621 27.8964 67.6413 27.818C67.7204 27.7396 67.7831 27.6466 67.826 27.5441C67.8688 27.4416 67.8908 27.3317 67.8908 27.2208V23.2771C67.8908 22.7314 67.6726 22.2082 67.284 21.8223C66.8955 21.4365 66.3686 21.2198 65.8191 21.2198L63.6415 21.222ZM18.0193 20.5362C18.0016 21.1497 17.6795 21.2154 17.1125 21.1803C16.5208 21.1347 15.9266 21.1296 15.3342 21.165C14.5576 21.222 13.7589 21.1015 12.9889 21.1957C11.9056 21.3271 11.4687 20.9766 11.5548 19.8351C11.6563 18.4614 11.6033 17.0745 11.568 15.6942C11.5504 15.0216 11.8085 14.785 12.466 14.8047C13.4875 14.8375 14.5135 14.7828 15.5328 14.8244C16.1567 14.8581 16.7479 15.1127 17.1992 15.5419C17.6505 15.9712 17.932 16.5467 17.9928 17.1643C18.0755 18.2865 18.0844 19.4129 18.0193 20.5362Z" fill="#121212"/>
<path d="M5.47182 17.688V14.8047H1.94172C1.97702 17.9334 2.09838 22.9287 2.11603 23.2552C2.33666 26.822 0.681901 28.8114 0.163417 29.346C0.092815 29.449 0.0376679 29.5081 0.00898577 29.495C-0.0196963 29.4818 3.09783 31.2105 3.09783 31.1995C5.85793 28.7764 5.47845 25.4352 5.47845 22.6088L5.47182 17.688Z" fill="#121212"/>
</svg>
