<svg width="146" height="133" viewBox="0 0 146 133" fill="none" xmlns="http://www.w3.org/2000/svg">
<g clip-path="url(#clip0_1414_2030)">
<path d="M14.3256 19.0004L17.3055 20.8311C17.4811 20.9393 17.6857 20.996 17.8921 20.9942L21.4097 20.9605C22.2678 20.9517 22.7946 21.8768 22.3402 22.5875L20.4701 25.5046C20.3597 25.6765 20.3017 25.8768 20.3035 26.0788L20.3379 29.5223C20.347 30.3624 19.402 30.8781 18.676 30.4333L15.6961 28.6025C15.5205 28.4944 15.3159 28.4377 15.1095 28.4395L11.5919 28.4731C10.7338 28.482 10.207 27.5569 10.6614 26.8462L12.5315 23.9291C12.642 23.7572 12.6999 23.5569 12.6981 23.3548L12.6637 19.9113C12.6546 19.0713 13.5996 18.5556 14.3256 19.0004Z" fill="white"/>
<path d="M28.387 12.234C29.0695 12.67 29.2632 13.565 28.8179 14.2349C28.3725 14.9031 27.4583 15.0927 26.7739 14.6567C26.0914 14.2207 25.8977 13.3257 26.3431 12.6558C26.7884 11.9877 27.7027 11.798 28.387 12.234Z" fill="white"/>
<path d="M26.257 43.9935C28.4394 43.8771 30.1122 42.0507 29.9932 39.9142C29.8742 37.7778 28.0086 36.1402 25.8262 36.2567C23.6437 36.3731 21.9709 38.1995 22.0899 40.336C22.2089 42.4724 24.0745 44.11 26.257 43.9935Z" fill="white"/>
<path d="M3.46686 22.07C4.50422 22.7329 4.7975 24.0922 4.12041 25.1077C3.44333 26.1232 2.05476 26.4103 1.0174 25.7475C-0.019953 25.0847 -0.313236 23.7253 0.36385 22.7098C1.04094 21.6943 2.42951 21.4072 3.46686 22.07Z" fill="white"/>
</g>
<g filter="url(#filter0_i_1414_2030)">
<path d="M142.756 105.13C136.207 132.386 111.002 132.168 79.9154 131.856C48.829 131.545 23.6241 131.259 17.6223 103.877C10.1181 69.6225 37.5873 35.1824 80.8821 35.6159C124.177 36.0495 150.951 71.0329 142.759 105.127L142.756 105.13Z" fill="white"/>
</g>
<g style="mix-blend-mode:multiply">
<path d="M142.792 101.544C136.256 127.493 111.051 127.272 79.9641 126.961C48.8777 126.65 23.6728 126.366 17.6579 100.291C16.8995 97.0063 16.5036 93.7222 16.4354 90.4697C16.2588 94.8878 16.6368 99.3823 17.622 103.874C23.6238 131.256 48.8287 131.542 79.9151 131.854C111.002 132.165 136.207 132.383 142.756 105.128C143.831 100.656 144.299 96.1701 144.211 91.7493C144.078 94.9998 143.616 98.2782 142.792 101.544Z" fill="#FFA985"/>
</g>
<path d="M132.858 97.6487C130.461 123.254 107.871 123.061 80.0096 122.782C52.1487 122.503 29.5564 122.243 27.6752 96.5953C25.6268 68.675 49.7428 55.8554 80.6768 56.1652C111.611 56.475 135.468 69.775 132.858 97.6487Z" fill="#F8CFBD"/>
<path d="M132.896 96.983C130.521 122.373 107.908 122.18 80.015 121.901C52.1224 121.622 29.5129 121.361 27.6439 95.9289C25.6131 68.2639 49.7394 55.572 80.6762 55.8818C111.613 56.1916 135.48 69.3642 132.896 96.983Z" fill="#FFA985"/>
<path d="M129.111 96.4946C126.987 119.596 105.97 119.417 80.0458 119.157C54.1213 118.898 33.1057 118.656 31.444 95.5166C29.6435 70.4309 52.0137 58.9575 80.6458 59.2443C109.278 59.531 131.414 71.4501 129.111 96.4946Z" fill="#FF8753"/>
<path d="M51.473 76.7054C54.2507 76.7332 56.5248 74.5372 56.5522 71.8006C56.5796 69.0639 54.35 66.8228 51.5723 66.795C48.7945 66.7672 46.5205 68.9631 46.4931 71.6998C46.4657 74.4365 48.6953 76.6775 51.473 76.7054Z" fill="#FFA985"/>
<g opacity="0.17">
<path d="M53.4702 49.7277C56.2462 49.8122 56.3837 45.561 53.6019 45.4765C50.8259 45.392 50.6884 49.6432 53.4702 49.7277Z" fill="white"/>
<path d="M36.7644 61.9322C36.8285 61.8506 36.8927 61.7691 36.9568 61.6903C37.0354 61.5919 37.1141 61.4963 37.1927 61.4007C36.849 61.8168 37.2189 61.3726 37.2975 61.2827C38.0688 60.4087 38.8601 59.5576 39.6913 58.7352C42.2082 56.2514 44.984 54.0622 48.0549 52.2842C50.4428 50.8991 48.394 47.1561 45.9917 48.5468C41.1001 51.381 36.5413 55.1911 33.1037 59.6729C31.4272 61.8618 35.0996 64.1014 36.7615 61.9322L36.7644 61.9322Z" fill="white"/>
</g>
<path d="M79.3141 48.8012C87.6108 48.8843 94.3615 46.4615 94.3922 43.3898C94.423 40.3181 87.7221 37.7606 79.4255 37.6775C71.1288 37.5945 64.3781 40.0172 64.3474 43.0889C64.3166 46.1606 71.0174 48.7181 79.3141 48.8012Z" fill="#2B2B2B"/>
<path d="M79.3146 48.8006C85.8835 48.8663 91.4783 47.3603 93.54 45.2064C92.1977 42.7548 86.3838 40.8652 79.3948 40.7952C72.4058 40.7252 66.5552 42.498 65.164 44.9222C67.1851 47.117 72.7486 48.7348 79.3146 48.8006Z" fill="black"/>
<path d="M81.8129 43.8414L96.1586 25.3003C96.8089 26.0698 97.7184 26.6303 98.7833 26.765C101.065 27.0691 103.181 25.4701 103.493 23.1877C103.804 20.9052 102.211 18.7929 99.9294 18.4888C97.6478 18.1847 95.5316 19.7836 95.22 22.0661C95.0508 23.2342 95.3995 24.3397 96.0527 25.1968L78.3249 40.5427C77.3675 41.3731 77.2075 42.8078 77.9776 43.8213C78.9328 45.0954 80.8429 45.096 81.819 43.8239L81.8211 43.8404L81.8129 43.8414Z" fill="#010101"/>
<path d="M86.835 39.26L60.6931 12.572C62.1101 11.7725 63.2375 10.5015 63.7578 8.86223C64.8536 5.40538 62.8348 1.73842 59.2204 0.684029C55.6059 -0.3661 51.7965 1.58527 50.6916 5.05907C49.5867 8.53286 51.6145 12.1829 55.2289 13.2373C57.0651 13.7711 58.9269 13.5214 60.4911 12.7063L80.6224 43.8669C81.7113 45.5521 83.9928 46.1373 85.8302 45.2099C88.1293 44.0316 88.6225 41.0927 86.8526 39.2857L86.8394 39.2643L86.835 39.26Z" fill="#010101"/>
<path d="M72.4114 94.281L88.7258 93.6453C92.7649 93.4878 95.4301 97.5701 93.4623 100.902C88.0737 110.028 74.2925 110.36 68.3912 101.511C66.344 98.4386 68.5733 94.4335 72.4114 94.2846L72.4114 94.281Z" fill="#231F20"/>
<path d="M68.2762 82.7718C67.4323 86.591 63.6522 89.003 59.833 88.1592C56.0138 87.3153 53.6018 83.5351 54.4457 79.7159C55.2895 75.8968 59.0697 73.4848 62.8889 74.3286C66.7081 75.1725 69.12 78.9527 68.2762 82.7718Z" fill="black" stroke="black"/>
<path d="M108.06 78.4589C108.06 78.4589 97.1375 69.9731 91.5518 82.956" stroke="black" stroke-width="4" stroke-miterlimit="10" stroke-linecap="round"/>
<defs>
<filter id="filter0_i_1414_2030" x="16.3899" y="35.6118" width="127.84" height="100.308" filterUnits="userSpaceOnUse" color-interpolation-filters="sRGB">
<feFlood flood-opacity="0" result="BackgroundImageFix"/>
<feBlend mode="normal" in="SourceGraphic" in2="BackgroundImageFix" result="shape"/>
<feColorMatrix in="SourceAlpha" type="matrix" values="0 0 0 0 0 0 0 0 0 0 0 0 0 0 0 0 0 0 127 0" result="hardAlpha"/>
<feOffset dy="4"/>
<feGaussianBlur stdDeviation="8.9"/>
<feComposite in2="hardAlpha" operator="arithmetic" k2="-1" k3="1"/>
<feColorMatrix type="matrix" values="0 0 0 0 1 0 0 0 0 0.472656 0 0 0 0 0.244141 0 0 0 0.69 0"/>
<feBlend mode="normal" in2="shape" result="effect1_innerShadow_1414_2030"/>
</filter>
<clipPath id="clip0_1414_2030">
<rect width="30" height="32" fill="white" transform="translate(0 12)"/>
</clipPath>
</defs>
</svg>
