<svg width="53" height="49" viewBox="0 0 53 49" fill="none" xmlns="http://www.w3.org/2000/svg">
<g clip-path="url(#clip0_1502_1887)">
<path d="M19.4107 0.0918646L2.3073 12.5526C0.852813 13.6153 0 15.2808 0 17.0485L0.015696 40.8307C0.015696 40.9737 0.0837117 41.1117 0.198815 41.1985L8.63277 47.7278C8.94669 47.973 9.41234 47.7533 9.41234 47.3599L9.36525 20.8291C9.36525 18.9439 10.2861 17.166 11.8504 16.0574L29.0323 3.89804C29.3462 3.67324 29.273 3.19811 28.9067 3.07549L19.8554 0.0254481C19.7037 -0.0256414 19.5362 -9.66337e-05 19.4107 0.0918646Z" fill="#A1E8ED"/>
<path d="M14.9483 16.9872C13.2217 18.1776 12.1858 20.1139 12.1701 22.1779L11.9922 45.8936C11.9922 47.6102 13.4153 48.9999 15.1732 48.9999H38.2672C38.4451 48.9999 38.6073 48.9028 38.691 48.7495L43.2376 40.3096C43.4102 39.9928 43.1696 39.6147 42.8033 39.6198L24.5594 40.0081C23.0212 40.0388 21.7498 38.8382 21.7341 37.3361L21.6295 26.3161C21.6138 24.6251 22.4875 23.0464 23.9473 22.1319L30.8953 17.7842C32.3812 16.9003 34.2595 16.9565 35.6826 17.9272L41.7465 22.0604C42.7876 22.7705 43.4155 23.9302 43.4259 25.1768L43.6143 48.3255C43.6143 48.7444 44.127 48.9539 44.4305 48.6627L52.7703 40.657C52.8592 40.5701 52.9115 40.4475 52.9115 40.3249L52.9952 21.6261C53.0057 19.6847 52.0273 17.8608 50.3845 16.7624L36.007 7.16265C34.0555 5.88541 31.5023 5.90074 29.5664 7.19841L14.943 16.9821L14.9483 16.9872Z" fill="#05BAC6"/>
</g>
<defs>
<clipPath id="clip0_1502_1887">
<rect width="53" height="49" fill="white"/>
</clipPath>
</defs>
</svg>
